<?xml version="1.0"?>
<svg xmlns="http://www.w3.org/2000/svg" viewBox="0 0 1024 1024">
  <defs>
    <linearGradient id="bg" x1="0" y1="0" x2="0" y2="1">
      <stop offset="0" stop-color="#1e293b"/>
      <stop offset="1" stop-color="#020617"/>
    </linearGradient>
    <linearGradient id="brand" gradientUnits="userSpaceOnUse" x1="260" y1="260" x2="780" y2="780">
      <stop offset="0" stop-color="#fdba74"/>
      <stop offset="0.5" stop-color="#fef08a"/>
      <stop offset="1" stop-color="#93c5fd"/>
    </linearGradient>
    <linearGradient id="feather" gradientUnits="userSpaceOnUse" x1="745" y1="215" x2="330" y2="700">
      <stop offset="0" stop-color="#fb923c"/>
      <stop offset="1" stop-color="#fef08a"/>
    </linearGradient>
    <linearGradient id="wave" gradientUnits="userSpaceOnUse" x1="340" y1="0" x2="770" y2="0">
      <stop offset="0" stop-color="#fef08a"/>
      <stop offset="1" stop-color="#60a5fa"/>
    </linearGradient>
  </defs>
  <rect x="100" y="100" width="824" height="824" rx="185" fill="url(#bg)"/>
  <rect x="101" y="101" width="822" height="822" rx="184" fill="none" stroke="#fff" stroke-opacity="0.08" stroke-width="2"/>
  <path d="M 360 650 C 380 470 520 290 745 215 C 700 420 560 580 360 650 Z" fill="url(#feather)"/>
  <path d="M 350 662 L 712 250" stroke="#0f172a" stroke-width="10" stroke-linecap="round"/>
  <path d="M 362 648 L 300 732" stroke="#fef08a" stroke-width="20" stroke-linecap="round"/>
  <rect x="340" y="778" width="22" height="24" rx="11" fill="url(#wave)"/>
  <rect x="376" y="762" width="22" height="56" rx="11" fill="url(#wave)"/>
  <rect x="412" y="740" width="22" height="100" rx="11" fill="url(#wave)"/>
  <rect x="448" y="755" width="22" height="70" rx="11" fill="url(#wave)"/>
  <rect x="484" y="720" width="22" height="140" rx="11" fill="url(#wave)"/>
  <rect x="520" y="745" width="22" height="90" rx="11" fill="url(#wave)"/>
  <rect x="556" y="765" width="22" height="50" rx="11" fill="url(#wave)"/>
  <rect x="592" y="730" width="22" height="120" rx="11" fill="url(#wave)"/>
  <rect x="628" y="752" width="22" height="76" rx="11" fill="url(#wave)"/>
  <rect x="664" y="770" width="22" height="40" rx="11" fill="url(#wave)"/>
  <rect x="700" y="758" width="22" height="64" rx="11" fill="url(#wave)"/>
  <rect x="736" y="776" width="22" height="28" rx="11" fill="url(#wave)"/>
</svg>
